<?xml version="1.0" encoding="UTF-8" standalone="no"?>
<!DOCTYPE svg PUBLIC "-//W3C//DTD SVG 1.1//EN" "http://www.w3.org/Graphics/SVG/1.1/DTD/svg11.dtd">
<svg width="100%" height="100%" viewBox="0 0 6400 1200" version="1.1" xmlns="http://www.w3.org/2000/svg" xmlns:xlink="http://www.w3.org/1999/xlink" xml:space="preserve" xmlns:serif="http://www.serif.com/" style="fill-rule:evenodd;clip-rule:evenodd;stroke-linecap:round;stroke-linejoin:round;stroke-miterlimit:1.5;">
    <path d="M1200,440.216L1200,100L2200,100L2200,400L2400,600L2200,800L2200,1100L1200,1100L1200,759.784C1177.18,777.366 1150.3,787.5 1121.55,787.5C1038.77,787.5 971.552,703.484 971.552,600C971.552,496.516 1038.77,412.5 1121.55,412.5C1150.3,412.5 1177.18,422.634 1200,440.216Z" style="fill:rgb(208,233,218);stroke:black;stroke-width:10px;"/>
    <g transform="matrix(1,0,0,1,1000,0)">
        <path d="M524.585,788.049C524.585,776.819 525.317,769.373 526.782,765.71C528.247,762.048 530.688,760.217 534.106,760.217C537.769,760.217 542.773,762.537 549.121,767.175C555.469,771.814 563.586,777.002 573.474,782.739C583.362,788.477 595.325,793.665 609.363,798.303C623.401,802.942 639.819,805.261 658.618,805.261C680.835,805.261 700.732,801.66 718.311,794.458C735.889,787.256 750.72,776.025 762.805,760.767C774.89,745.508 784.167,726.038 790.637,702.356C797.107,678.674 800.342,650.232 800.342,617.029C800.342,587.732 797.168,561.548 790.82,538.477C784.473,515.405 775.317,495.813 763.354,479.7C751.392,463.586 736.987,451.318 720.142,442.896C703.296,434.473 684.375,430.261 663.379,430.261C644.092,430.261 627.368,432.642 613.208,437.402C599.048,442.163 586.963,447.412 576.953,453.149C566.943,458.887 558.826,464.136 552.6,468.896C546.375,473.657 541.431,476.038 537.769,476.038C530.2,476.038 526.416,466.76 526.416,448.206C526.416,444.299 526.477,440.82 526.599,437.769C526.721,434.717 527.148,431.909 527.881,429.346C528.613,426.782 529.712,424.402 531.177,422.205C532.642,420.007 534.717,417.688 537.402,415.247C540.82,411.34 546.497,407.068 554.431,402.429C562.366,397.791 572.009,393.457 583.362,389.429C594.714,385.4 607.41,382.043 621.448,379.358C635.486,376.672 650.439,375.33 666.309,375.33C697.314,375.33 725.269,380.64 750.171,391.26C775.073,401.88 796.313,417.444 813.892,437.952C831.47,458.459 844.958,483.85 854.358,514.124C863.757,544.397 868.457,579.065 868.457,618.127C868.457,660.364 863.086,696.802 852.344,727.441C841.602,758.081 826.892,783.289 808.215,803.064C789.539,822.839 767.444,837.427 741.931,846.826C716.418,856.226 688.892,860.925 659.351,860.925C642.017,860.925 626.208,859.338 611.926,856.165C597.644,852.991 585.132,849.268 574.39,844.995C563.647,840.723 554.858,836.328 548.022,831.812C541.187,827.295 536.426,823.694 533.74,821.008C529.59,816.858 527.026,812.341 526.05,807.458C525.073,802.576 524.585,796.106 524.585,788.049ZM702.93,617.029C702.93,634.363 700.061,645.898 694.324,651.636C688.586,657.373 678.149,660.242 663.013,660.242C648.364,660.242 638.232,657.434 632.617,651.819C627.002,646.204 624.194,634.973 624.194,618.127C624.194,600.793 627.063,589.258 632.8,583.521C638.538,577.783 648.975,574.915 664.111,574.915C678.76,574.915 688.892,577.722 694.507,583.337C700.122,588.953 702.93,600.183 702.93,617.029Z" style="fill-rule:nonzero;stroke:rgb(69,190,146);stroke-width:1px;stroke-linecap:butt;stroke-miterlimit:2;"/>
    </g>
</svg>
