<?xml version="1.0" encoding="UTF-8" standalone="no"?>
<!DOCTYPE svg PUBLIC "-//W3C//DTD SVG 1.1//EN" "http://www.w3.org/Graphics/SVG/1.1/DTD/svg11.dtd">
<svg width="100%" height="100%" viewBox="0 0 6400 1200" version="1.1" xmlns="http://www.w3.org/2000/svg" xmlns:xlink="http://www.w3.org/1999/xlink" xml:space="preserve" xmlns:serif="http://www.serif.com/" style="fill-rule:evenodd;clip-rule:evenodd;stroke-linecap:round;stroke-linejoin:round;stroke-miterlimit:1.5;">
    <path d="M4200,739.246C4210.37,730.142 4222.2,725 4234.74,725C4276.14,725 4309.74,781.011 4309.74,850C4309.74,918.989 4276.14,975 4234.74,975C4222.2,975 4210.37,969.858 4200,960.754L4200,1100L3200,1100L3200,875L3080,875L3080,325L3200,325L3200,100L4200,100L4200,239.246C4210.37,230.142 4222.2,225 4234.74,225C4276.14,225 4309.74,281.011 4309.74,350C4309.74,418.989 4276.14,475 4234.74,475C4222.2,475 4210.37,469.858 4200,460.754L4200,739.246Z" style="fill:rgb(208,233,218);stroke:black;stroke-width:10px;"/>
    <g transform="matrix(1,0,0,1,3000,0)">
        <path d="M732.227,483.179L793.384,376.245C795.337,372.827 798.389,371.118 802.539,371.118C805.957,371.118 810.168,372.095 815.173,374.048C820.178,376.001 826.587,379.175 834.399,383.569C847.339,391.138 855.579,397.302 859.119,402.063C862.659,406.824 863.33,411.157 861.133,415.063L799.976,521.997L894.824,576.563C896.777,577.783 898.486,579.431 899.951,581.506C901.416,583.582 902.148,586.328 902.148,589.746C902.148,592.676 901.538,596.094 900.317,600C899.097,603.906 896.899,608.667 893.726,614.282C890.063,620.63 886.646,625.452 883.472,628.748C880.298,632.043 877.429,634.302 874.866,635.522C872.302,636.743 869.922,637.17 867.725,636.804C865.527,636.438 863.574,635.767 861.865,634.79L766.65,580.225L700.732,695.215L795.947,749.78C797.9,751.001 799.609,752.649 801.074,754.724C802.539,756.799 803.271,759.546 803.271,762.964C803.271,765.894 802.6,769.312 801.257,773.218C799.915,777.124 797.656,781.885 794.482,787.5C790.82,793.848 787.402,798.669 784.229,801.965C781.055,805.261 778.186,807.52 775.623,808.74C773.059,809.961 770.679,810.388 768.481,810.022C766.284,809.656 764.331,808.984 762.622,808.008L667.407,753.442L605.884,861.108C603.931,864.526 600.879,866.235 596.729,866.235C593.555,866.235 589.526,865.259 584.644,863.306C579.761,861.353 573.413,858.179 565.601,853.784C552.417,846.216 543.994,840.112 540.332,835.474C536.67,830.835 535.937,826.562 538.135,822.656L599.658,714.624L504.443,660.059C502.49,658.838 500.781,657.251 499.316,655.298C497.852,653.345 497.119,650.659 497.119,647.241C497.119,644.312 497.791,640.833 499.133,636.804C500.476,632.776 502.734,627.954 505.908,622.339C509.326,616.479 512.561,611.902 515.613,608.606C518.665,605.31 521.533,603.052 524.219,601.831C526.904,600.61 529.407,600.122 531.726,600.366C534.045,600.61 536.06,601.221 537.769,602.197L632.983,656.763L698.901,541.406L603.687,486.841C601.733,485.62 600.024,483.972 598.56,481.897C597.095,479.822 596.362,477.075 596.362,473.657C596.362,470.728 597.034,467.31 598.376,463.403C599.719,459.497 601.978,454.736 605.151,449.121C608.569,443.262 611.804,438.684 614.856,435.388C617.908,432.092 620.776,429.834 623.462,428.613C626.147,427.393 628.65,426.843 630.969,426.965C633.289,427.087 635.303,427.637 637.012,428.613L732.227,483.179Z" style="fill-rule:nonzero;stroke:rgb(69,190,146);stroke-width:1px;stroke-linecap:butt;stroke-miterlimit:2;"/>
    </g>
</svg>
