<?xml version="1.0" encoding="UTF-8" standalone="no"?>
<!DOCTYPE svg PUBLIC "-//W3C//DTD SVG 1.1//EN" "http://www.w3.org/Graphics/SVG/1.1/DTD/svg11.dtd">
<svg width="100%" height="100%" viewBox="0 0 6400 1200" version="1.1" xmlns="http://www.w3.org/2000/svg" xmlns:xlink="http://www.w3.org/1999/xlink" xml:space="preserve" xmlns:serif="http://www.serif.com/" style="fill-rule:evenodd;clip-rule:evenodd;stroke-linecap:round;stroke-linejoin:round;stroke-miterlimit:1.5;">
    <path d="M5200,100L5200,240L5320,240L5320,480L5200,480L5200,720L5080,720L5080,960L5200,960L5200,1100L6200,1100L6200,100L5200,100Z" style="fill:rgb(208,233,218);stroke:black;stroke-width:10px;"/>
    <g transform="matrix(1,0,0,1,5000,0)">
        <path d="M919.91,832.727C921.863,838.098 922.9,842.432 923.022,845.728C923.145,849.023 922.168,851.526 920.093,853.235C918.018,854.944 914.6,856.042 909.839,856.531C905.078,857.019 898.547,857.263 890.247,857.263C882.434,857.263 876.392,857.08 872.119,856.714C867.847,856.348 864.612,855.737 862.415,854.883C860.217,854.028 858.752,852.808 858.02,851.221C857.288,849.634 856.555,847.742 855.823,845.544L773.059,637.17L728.748,637.17L728.748,845.911C728.748,847.864 728.259,849.512 727.283,850.854C726.306,852.197 724.719,853.357 722.522,854.333C720.325,855.31 717.273,856.042 713.367,856.531C709.46,857.019 704.456,857.263 698.352,857.263C692.493,857.263 687.61,857.019 683.704,856.531C679.797,856.042 676.685,855.31 674.365,854.333C672.046,853.357 670.459,852.197 669.604,850.854C668.75,849.512 668.323,847.864 668.323,845.911L668.323,637.17L622.18,637.17L541.614,844.812C540.881,847.253 540.027,849.268 539.05,850.854C538.074,852.441 536.426,853.723 534.106,854.7C531.787,855.676 528.552,856.348 524.402,856.714C520.251,857.08 514.636,857.263 507.556,857.263C499.988,857.263 494.006,856.958 489.612,856.348C485.217,855.737 481.982,854.578 479.907,852.869C477.832,851.16 476.978,848.779 477.344,845.728C477.71,842.676 478.87,838.22 480.823,832.361L658.801,392.175C659.534,389.49 660.754,387.292 662.463,385.583C664.172,383.875 666.553,382.532 669.604,381.555C672.656,380.579 676.562,379.907 681.323,379.541C686.084,379.175 692.004,378.992 699.084,378.992C704.456,378.992 709.155,379.053 713.184,379.175C717.212,379.297 720.752,379.602 723.804,380.09C726.855,380.579 729.358,381.128 731.311,381.738C733.264,382.349 735.034,383.142 736.621,384.119C738.208,385.095 739.429,386.316 740.283,387.781C741.138,389.246 741.809,390.833 742.297,392.542L919.91,832.727ZM696.887,445.276L643.787,582.239L751.453,582.239L697.253,445.276L696.887,445.276Z" style="fill-rule:nonzero;stroke:rgb(69,190,146);stroke-width:1px;stroke-linecap:butt;stroke-miterlimit:2;"/>
    </g>
</svg>
