<?xml version="1.0" encoding="UTF-8" standalone="no"?>
<!DOCTYPE svg PUBLIC "-//W3C//DTD SVG 1.1//EN" "http://www.w3.org/Graphics/SVG/1.1/DTD/svg11.dtd">
<svg width="100%" height="100%" viewBox="0 0 6400 1200" version="1.1" xmlns="http://www.w3.org/2000/svg" xmlns:xlink="http://www.w3.org/1999/xlink" xml:space="preserve" xmlns:serif="http://www.serif.com/" style="fill-rule:evenodd;clip-rule:evenodd;stroke-linecap:round;stroke-linejoin:round;stroke-miterlimit:1.5;">
    <path d="M5200,720L5080,720L5080,960L5200,960L5200,1100L4200,1100L4200,960.754C4210.37,969.858 4222.2,975 4234.74,975C4276.14,975 4309.74,918.989 4309.74,850C4309.74,781.011 4276.14,725 4234.74,725C4222.2,725 4210.37,730.142 4200,739.246L4200,460.754C4210.37,469.858 4222.2,475 4234.74,475C4276.14,475 4309.74,418.989 4309.74,350C4309.74,281.011 4276.14,225 4234.74,225C4222.2,225 4210.37,230.142 4200,239.246L4200,100L5200,100L5200,240L5320,240L5320,480L5200,480L5200,720Z" style="fill:rgb(208,233,218);stroke:black;stroke-width:10px;"/>
    <g transform="matrix(1,0,0,1,4000,0)">
        <path d="M560.657,785.12C560.657,763.635 563.708,744.592 569.809,727.991C575.911,711.389 584.456,697.229 595.444,685.51C606.432,673.792 619.617,664.636 634.998,658.044C650.378,651.453 667.468,647.546 686.267,646.326L688.831,558.069C688.831,554.407 690.967,551.66 695.239,549.829C699.512,547.998 706.407,547.083 715.924,547.083C721.055,547.083 725.452,547.266 729.114,547.632C732.776,547.998 735.706,548.608 737.903,549.463C740.1,550.317 741.687,551.477 742.664,552.942C743.64,554.407 744.128,556.116 744.128,558.069L746.326,659.509C746.57,665.128 746.143,669.708 745.044,673.248C743.945,676.788 742.297,679.717 740.1,682.034C737.903,684.352 735.095,685.937 731.677,686.792C728.259,687.646 724.353,688.074 719.958,688.074L711.896,688.074C696.031,688.074 682.483,690.576 671.252,695.581C660.022,700.586 650.928,707.239 643.97,715.54C637.012,723.84 631.946,733.607 628.772,744.839C625.598,756.072 624.011,767.789 624.011,779.993C624.011,793.909 625.964,806.665 629.871,818.262C633.777,829.858 639.637,839.869 647.452,848.294C655.266,856.719 665.094,863.249 676.934,867.886C688.775,872.523 702.75,874.841 718.86,874.841C733.02,874.841 745.41,873.316 756.03,870.267C766.65,867.217 775.867,863.86 783.679,860.196C791.492,856.532 797.9,853.235 802.905,850.305C807.91,847.375 811.633,845.911 814.075,845.911C815.784,845.911 817.31,846.277 818.652,847.009C819.995,847.742 821.155,849.146 822.131,851.221C823.108,853.296 823.84,856.104 824.329,859.644C824.817,863.184 825.061,867.639 825.061,873.01C825.061,878.87 824.695,883.325 823.962,886.377C823.23,889.429 821.643,892.114 819.202,894.434C816.76,896.753 812.061,899.806 805.103,903.592C798.145,907.378 789.722,910.857 779.834,914.029C769.946,917.201 759.082,919.885 747.241,922.083C735.4,924.28 723.13,925.378 710.431,925.378C684.308,925.378 661.848,921.655 643.051,914.209C624.254,906.763 608.751,896.693 596.543,883.999C584.334,871.306 575.3,856.414 569.443,839.325C563.585,822.235 560.657,804.166 560.657,785.12ZM676.379,460.291C676.379,452.234 676.929,445.581 678.027,440.332C679.126,435.083 681.14,430.811 684.07,427.515C687,424.219 690.967,421.899 695.972,420.557C700.977,419.214 707.139,418.542 714.46,418.542C722.276,418.542 728.625,419.214 733.508,420.557C738.391,421.899 742.358,424.219 745.41,427.515C748.462,430.811 750.537,435.083 751.636,440.332C752.734,445.581 753.284,452.234 753.284,460.291C753.284,468.347 752.734,475.123 751.636,480.618C750.537,486.113 748.462,490.386 745.41,493.435C742.358,496.485 738.391,498.682 733.508,500.024C728.625,501.367 722.276,502.039 714.46,502.039C707.139,502.039 700.977,501.367 695.972,500.024C690.967,498.682 687,496.485 684.07,493.435C681.14,490.386 679.126,486.113 678.027,480.618C676.929,475.123 676.379,468.347 676.379,460.291Z" style="fill-rule:nonzero;stroke:rgb(69,190,146);stroke-width:1px;stroke-linecap:butt;stroke-miterlimit:2;"/>
    </g>
</svg>
