<?xml version="1.0" encoding="UTF-8" standalone="no"?>
<!DOCTYPE svg PUBLIC "-//W3C//DTD SVG 1.1//EN" "http://www.w3.org/Graphics/SVG/1.1/DTD/svg11.dtd">
<svg width="100%" height="100%" viewBox="0 0 6400 1200" version="1.1" xmlns="http://www.w3.org/2000/svg" xmlns:xlink="http://www.w3.org/1999/xlink" xml:space="preserve" xmlns:serif="http://www.serif.com/" style="fill-rule:evenodd;clip-rule:evenodd;stroke-linecap:round;stroke-linejoin:round;stroke-miterlimit:1.5;">
    <g transform="matrix(0.988755,0,0,1,2002.25,0)">
        <path d="M1211.37,1100L200,1100L200,800L402.275,600L200,400L200,100L1211.37,100L1211.37,325L1090.01,325L1090.01,875L1211.37,875L1211.37,1100Z" style="fill:rgb(208,233,218);stroke:black;stroke-width:10.06px;"/>
    </g>
    <g transform="matrix(1,0,0,1,2000,0)">
        <path d="M921.924,570.886C921.924,599.695 917.407,625.513 908.374,648.34C899.341,671.167 886.462,690.637 869.739,706.75C853.015,722.864 832.751,735.315 808.948,744.104C785.144,752.893 758.228,757.654 728.198,758.386L728.198,845.911C728.198,847.864 727.71,849.573 726.733,851.038C725.757,852.502 724.048,853.662 721.606,854.517C719.165,855.371 715.93,856.042 711.902,856.531C707.874,857.019 702.808,857.263 696.704,857.263C690.601,857.263 685.535,857.019 681.506,856.531C677.478,856.042 674.304,855.371 671.985,854.517C669.666,853.662 667.957,852.502 666.858,851.038C665.759,849.573 665.21,847.864 665.21,845.911L665.21,758.386C634.692,757.654 607.471,753.259 583.545,745.203C559.619,737.146 539.355,725.488 522.754,710.229C506.152,694.971 493.457,676.233 484.668,654.016C475.879,631.799 471.484,606.287 471.484,577.478L471.484,390.344C471.484,388.635 472.034,387.048 473.132,385.583C474.231,384.119 475.94,382.898 478.259,381.921C480.579,380.945 483.752,380.212 487.781,379.724C491.809,379.236 496.875,378.992 502.979,378.992C509.082,378.992 514.148,379.236 518.176,379.724C522.205,380.212 525.439,380.945 527.881,381.921C530.322,382.898 532.031,384.119 533.008,385.583C533.984,387.048 534.473,388.635 534.473,390.344L534.473,571.985C534.473,592.249 537.158,610.498 542.529,626.733C547.9,642.969 555.957,656.763 566.699,668.115C577.441,679.468 591.052,688.257 607.532,694.482C624.011,700.708 643.237,704.065 665.21,704.553L665.21,390.344C665.21,388.635 665.759,387.048 666.858,385.583C667.957,384.119 669.788,382.898 672.351,381.921C674.915,380.945 678.21,380.212 682.239,379.724C686.267,379.236 691.089,378.992 696.704,378.992C702.808,378.992 707.874,379.236 711.902,379.724C715.93,380.212 719.165,380.945 721.606,381.921C724.048,382.898 725.757,384.119 726.733,385.583C727.71,387.048 728.198,388.635 728.198,390.344L728.198,704.553C750.171,704.309 769.336,700.952 785.693,694.482C802.051,688.013 815.662,679.102 826.526,667.749C837.39,656.396 845.569,642.725 851.062,626.733C856.555,610.742 859.302,592.981 859.302,573.45L859.302,390.344C859.302,388.635 859.79,387.048 860.767,385.583C861.743,384.119 863.452,382.898 865.894,381.921C868.335,380.945 871.509,380.212 875.415,379.724C879.321,379.236 884.448,378.992 890.796,378.992C896.655,378.992 901.599,379.236 905.627,379.724C909.656,380.212 912.83,380.945 915.149,381.921C917.468,382.898 919.177,384.119 920.276,385.583C921.375,387.048 921.924,388.635 921.924,390.344L921.924,570.886Z" style="fill-rule:nonzero;stroke:rgb(69,190,146);stroke-width:1px;stroke-linecap:butt;stroke-miterlimit:2;"/>
    </g>
</svg>
