<?xml version="1.0" encoding="UTF-8" standalone="no"?>
<!DOCTYPE svg PUBLIC "-//W3C//DTD SVG 1.1//EN" "http://www.w3.org/Graphics/SVG/1.1/DTD/svg11.dtd">
<svg width="100%" height="100%" viewBox="0 0 6400 1200" version="1.1" xmlns="http://www.w3.org/2000/svg" xmlns:xlink="http://www.w3.org/1999/xlink" xml:space="preserve" xmlns:serif="http://www.serif.com/" style="fill-rule:evenodd;clip-rule:evenodd;stroke-linecap:round;stroke-linejoin:round;stroke-miterlimit:1.5;">
    <g transform="matrix(0.988755,0,0,1,2.249,0)">
        <path d="M1211.37,440.216C1188.29,422.634 1161.11,412.5 1132.03,412.5C1048.3,412.5 980.327,496.516 980.327,600C980.327,703.484 1048.3,787.5 1132.03,787.5C1161.11,787.5 1188.29,777.366 1211.37,759.784L1211.37,1100L200,1100L200,100L1211.37,100L1211.37,440.216Z" style="fill:rgb(208,233,218);stroke:black;stroke-width:10.06px;"/>
    </g>
    <path d="M751.636,721.033C751.636,706.14 748.828,693.262 743.213,682.397C737.598,671.533 729.48,662.561 718.86,655.481C708.24,648.401 695.361,643.152 680.225,639.734C665.088,636.316 648.12,634.607 629.321,634.607L573.657,634.607C568.042,634.607 564.197,632.776 562.122,629.114C560.046,625.452 559.009,618.738 559.009,608.972C559.009,599.695 560.107,593.103 562.305,589.197C564.502,585.291 568.164,583.337 573.291,583.337L625.659,583.337C641.772,583.337 656.482,581.506 669.788,577.844C683.093,574.182 694.446,568.811 703.845,561.731C713.245,554.651 720.508,545.923 725.635,535.547C730.762,525.171 733.325,513.269 733.325,499.841C733.325,478.113 726.184,460.657 711.902,447.473C697.62,434.29 676.196,427.698 647.632,427.698C632.007,427.698 618.152,429.407 606.067,432.825C593.982,436.243 583.423,439.966 574.39,443.994C565.356,448.022 557.91,451.685 552.051,454.98C546.191,458.276 541.675,459.924 538.501,459.924C535.083,459.924 532.825,458.276 531.726,454.98C530.627,451.685 530.078,445.276 530.078,435.754C530.078,429.163 530.566,423.364 531.543,418.359C532.52,413.354 534.839,409.021 538.501,405.359C540.698,403.162 545.337,400.293 552.417,396.753C559.497,393.213 568.469,389.734 579.333,386.316C590.198,382.898 602.466,380.029 616.138,377.71C629.81,375.391 644.336,374.231 659.717,374.231C683.154,374.231 703.662,377.039 721.24,382.654C738.818,388.269 753.406,396.204 765.002,406.458C776.599,416.711 785.327,429.041 791.187,443.445C797.046,457.849 799.976,473.84 799.976,491.418C799.976,507.532 797.595,521.997 792.834,534.814C788.074,547.632 781.604,558.74 773.425,568.14C765.247,577.539 755.664,585.229 744.678,591.211C733.691,597.192 722.095,601.282 709.888,603.479L709.888,604.578C726.001,606.531 740.466,610.559 753.284,616.663C766.101,622.766 777.026,630.701 786.06,640.466C795.093,650.232 802.051,661.646 806.934,674.707C811.816,687.769 814.258,702.356 814.258,718.469L814.258,800.867L862.231,800.867C867.114,800.867 870.593,802.271 872.668,805.078C874.744,807.886 875.781,812.463 875.781,818.811L875.781,970.422C875.781,972.375 875.354,973.962 874.5,975.183C873.645,976.404 872.241,977.38 870.288,978.113C868.335,978.845 865.649,979.456 862.231,979.944C858.813,980.432 854.175,980.676 848.315,980.676C843.433,980.676 839.282,980.432 835.864,979.944C832.446,979.456 829.639,978.845 827.441,978.113C825.244,977.38 823.718,976.404 822.864,975.183C822.009,973.962 821.582,972.375 821.582,970.422L821.582,857.263L783.496,857.263C771.777,857.263 763.538,856.226 758.777,854.15C754.016,852.075 751.636,849.329 751.636,845.911L751.636,721.033Z" style="fill-rule:nonzero;stroke:rgb(69,190,146);stroke-width:1px;stroke-linecap:butt;stroke-miterlimit:2;"/>
</svg>
