<?xml version="1.0" encoding="UTF-8" standalone="no"?>
<!DOCTYPE svg PUBLIC "-//W3C//DTD SVG 1.1//EN" "http://www.w3.org/Graphics/SVG/1.1/DTD/svg11.dtd">
<svg width="100%" height="100%" viewBox="0 0 2000 1000" version="1.1" xmlns="http://www.w3.org/2000/svg" xmlns:xlink="http://www.w3.org/1999/xlink" xml:space="preserve" xmlns:serif="http://www.serif.com/" style="fill-rule:evenodd;clip-rule:evenodd;stroke-linecap:round;stroke-linejoin:round;stroke-miterlimit:1.5;">
    <g transform="matrix(0.999188,0,0,1,0,0)">
        <rect x="0" y="0" width="500.406" height="1000" style="fill:rgb(0,255,55);fill-opacity:0;"/>
    </g>
    <g transform="matrix(0.999188,0,0,1,1500,0)">
        <rect x="0" y="0" width="500.406" height="1000" style="fill:rgb(164,0,255);fill-opacity:0;"/>
    </g>
    <g transform="matrix(0.866025,0.5,-0.5,0.866025,272.508,-462.88)">
        <g transform="matrix(0.92077,0,0,0.717626,84.4195,63.2365)">
            <path d="M1445.62,287.518C1445.62,281.75 1441.97,277.067 1437.47,277.067L1073.64,277.067C1069.15,277.067 1065.5,281.75 1065.5,287.518L1065.5,308.42C1065.5,314.189 1069.15,318.872 1073.64,318.872L1437.47,318.872C1441.97,318.872 1445.62,314.189 1445.62,308.42L1445.62,287.518Z" style="stroke:black;stroke-width:13.46px;"/>
        </g>
        <g transform="matrix(0.92077,0,0,0.717626,-396.581,63.2365)">
            <path d="M1445.62,287.518C1445.62,281.75 1441.97,277.067 1437.47,277.067L1073.64,277.067C1069.15,277.067 1065.5,281.75 1065.5,287.518L1065.5,308.42C1065.5,314.189 1069.15,318.872 1073.64,318.872L1437.47,318.872C1441.97,318.872 1445.62,314.189 1445.62,308.42L1445.62,287.518Z" style="stroke:black;stroke-width:13.46px;"/>
        </g>
        <g transform="matrix(1,0,0,1,-2.85615,-47.6439)">
            <circle cx="1002.86" cy="324.711" r="62.644" style="fill-opacity:0;stroke:black;stroke-width:22.22px;"/>
        </g>
    </g>
    <g id="Kerze">
        <g transform="matrix(0.321742,0,0,0.5,121.291,162.233)">
            <rect x="391.718" y="286.744" width="16.637" height="63.22" style="fill:white;stroke:black;stroke-width:13.21px;"/>
        </g>
        <g transform="matrix(0.789103,0,0,0.99008,65.3846,70.6889)">
            <path d="M360.682,283.709C360.682,277.098 353.948,271.73 345.653,271.73L122.26,271.73C113.964,271.73 107.23,277.098 107.23,283.709L107.23,865.763C107.23,872.374 113.964,877.742 122.26,877.742L345.653,877.742C353.948,877.742 360.682,872.374 360.682,865.763L360.682,283.709Z" style="fill:none;stroke:black;stroke-width:18.62px;"/>
        </g>
        <path d="M300.561,373.914C302.833,399.138 291.606,430.285 291.606,437.813C291.606,445.26 296.561,454.849 304.008,454.849C311.454,454.849 318.59,445.26 318.59,437.813C318.59,430.285 313.905,390.143 311.543,374.187L335.907,360.558C341.993,360.558 350,369.246 350,363.161L350,350.75C350,344.665 345.059,339.724 338.974,339.724L161.026,339.724C154.941,339.724 150,344.665 150,350.75L150,363.161C150,369.246 168.57,370.439 174.655,370.439L192.827,374.187C194.905,401.565 192.928,475.164 188.567,510.619C188.011,515.139 192.265,518.871 196.819,518.871C201.373,518.871 205.071,515.173 205.071,510.619C205.071,474.891 204.73,400.475 202.719,374.459C218.48,372.975 234.24,374.22 250,380.005L274.392,369.641C285.951,364.258 293.561,368.354 300.561,373.914Z" style="fill:none;stroke:black;stroke-width:5.56px;"/>
        <g transform="matrix(0.9375,0,0,1.02562,-478.067,-299.683)">
            <path d="M776.604,336.474C791.877,428.422 700.244,465.202 700.244,520.37C700.244,558.894 734.46,590.171 776.604,590.171C818.749,590.171 852.965,558.894 852.965,520.37C852.965,465.202 814.785,393.522 776.604,336.474Z" style="fill:rgb(13,243,23);stroke:black;stroke-width:11.31px;"/>
        </g>
    </g>
    <g id="Kerze1" serif:id="Kerze" transform="matrix(1,0,0,1,1500,0)">
        <g transform="matrix(0.321742,0,0,0.5,121.291,162.233)">
            <rect x="391.718" y="286.744" width="16.637" height="63.22" style="fill:white;stroke:black;stroke-width:13.21px;"/>
        </g>
        <g transform="matrix(0.789103,0,0,0.99008,65.3846,70.6889)">
            <path d="M360.682,283.709C360.682,277.098 353.948,271.73 345.653,271.73L122.26,271.73C113.964,271.73 107.23,277.098 107.23,283.709L107.23,865.763C107.23,872.374 113.964,877.742 122.26,877.742L345.653,877.742C353.948,877.742 360.682,872.374 360.682,865.763L360.682,283.709Z" style="fill:none;stroke:black;stroke-width:18.62px;"/>
        </g>
        <path d="M300.561,373.914C302.833,399.138 291.606,430.285 291.606,437.813C291.606,445.26 296.561,454.849 304.008,454.849C311.454,454.849 318.59,445.26 318.59,437.813C318.59,430.285 313.905,390.143 311.543,374.187L335.907,360.558C341.993,360.558 350,369.246 350,363.161L350,350.75C350,344.665 345.059,339.724 338.974,339.724L161.026,339.724C154.941,339.724 150,344.665 150,350.75L150,363.161C150,369.246 168.57,370.439 174.655,370.439L192.827,374.187C194.905,401.565 192.928,475.164 188.567,510.619C188.011,515.139 192.265,518.871 196.819,518.871C201.373,518.871 205.071,515.173 205.071,510.619C205.071,474.891 204.73,400.475 202.719,374.459C218.48,372.975 234.24,374.22 250,380.005L274.392,369.641C285.951,364.258 293.561,368.354 300.561,373.914Z" style="fill:none;stroke:black;stroke-width:5.56px;"/>
        <g transform="matrix(0.9375,0,0,1.02562,-478.067,-299.683)">
            <path d="M776.604,336.474C791.877,428.422 700.244,465.202 700.244,520.37C700.244,558.894 734.46,590.171 776.604,590.171C818.749,590.171 852.965,558.894 852.965,520.37C852.965,465.202 814.785,393.522 776.604,336.474Z" style="fill:rgb(208,13,243);stroke:black;stroke-width:11.31px;"/>
        </g>
    </g>
    <g transform="matrix(0.723943,0,0,0.75,140.008,-151.618)">
        <g transform="matrix(0.899543,0,0,0.899543,-31.0269,34.4489)">
            <path d="M999.783,581.716C995.306,669.777 922.401,739.892 833.249,739.892C741.216,739.892 666.498,665.173 666.498,573.14L1000,573.14L999.783,581.716Z" style="stroke:black;stroke-width:16.76px;"/>
        </g>
        <g transform="matrix(1.07044,0,0,0.695482,-112.318,144.496)">
            <path d="M776.164,223.611L916.294,583.074L636.035,583.074L776.164,223.611Z" style="fill:none;stroke:black;stroke-width:16.82px;"/>
        </g>
    </g>
    <g transform="matrix(0.723943,0,0,0.75,817.201,243.05)">
        <g transform="matrix(0.899543,0,0,0.899543,-31.0269,34.4489)">
            <path d="M999.783,581.716C996.847,639.459 964.49,689.486 917.423,717.088C892.71,731.581 863.942,739.892 833.249,739.892C741.216,739.892 666.498,665.173 666.498,573.14L1000,573.14L999.783,581.716Z" style="stroke:black;stroke-width:16.76px;"/>
        </g>
        <g transform="matrix(1.07044,0,0,0.695482,-112.318,144.496)">
            <path d="M776.164,223.611L916.294,583.074L636.035,583.074L776.164,223.611Z" style="fill:none;stroke:black;stroke-width:16.82px;"/>
        </g>
    </g>
    <g transform="matrix(1.04915,0,0,2.0984,49.4929,-908.923)">
        <path d="M870.234,590.767C880.355,594.32 892.684,596.402 905.977,596.402C919.271,596.402 931.599,594.32 941.72,590.767L941.72,873.81L870.234,873.81L870.234,590.767Z" style="stroke:black;stroke-width:6.7px;"/>
    </g>
    <g transform="matrix(1.04915,0,0,2.0984,49.4929,-908.923)">
        <path d="M941.72,539.609C931.599,536.055 919.271,533.973 905.977,533.973C892.684,533.973 880.355,536.055 870.234,539.609L870.234,492.567L941.72,492.567L941.72,539.609Z" style="stroke:black;stroke-width:6.7px;"/>
    </g>
    <g transform="matrix(3.06255,0,0,0.859008,-1264.71,172.548)">
        <path d="M821.117,846.478C821.117,830.416 817.459,817.375 812.954,817.375L666.018,817.375C661.512,817.375 657.854,830.416 657.854,846.478C657.854,862.541 661.512,875.582 666.018,875.582L812.954,875.582C817.459,875.582 821.117,862.541 821.117,846.478Z" style="stroke:black;stroke-width:4.94px;"/>
    </g>
</svg>
